<svg width="18" height="14" viewBox="0 0 18 14" fill="none" xmlns="http://www.w3.org/2000/svg">
<path d="M9.98837 13.628C10.0009 13.6406 10.3845 13.7367 10.8408 13.8416C11.2971 13.9464 11.6753 14.0162 11.6814 13.9967C11.6875 13.9772 11.7347 13.6605 11.7863 13.2929C11.89 12.5547 12.1411 11.6929 12.4094 11.1539C13.2458 9.474 14.7463 8.3617 16.5662 8.0726L17.0297 7.99896V7.25688V6.51474L16.6096 6.44426C13.8576 5.98257 12.0635 3.92488 11.7278 0.845543C11.7059 0.644464 11.6798 0.48 11.6697 0.48C11.5769 0.48 10.039 0.85063 10.0099 0.879991C9.98884 0.901221 10.0045 1.08972 10.0447 1.29882C10.4897 3.61414 11.7639 5.49818 13.4175 6.28594L13.8141 6.47491L5.65764 6.48971L0.5 6.4991V8.00096L5.67091 8.01037L13.8082 8.02522L13.3074 8.27894C12.0083 8.93709 10.9798 10.2281 10.3741 11.961C10.2015 12.4547 9.9411 13.5803 9.98837 13.628Z" fill="#636363"/>
</svg>
