<svg width="25" height="25" viewBox="0 0 25 25" fill="none" xmlns="http://www.w3.org/2000/svg">
<path d="M21.7768 20.012C21.8092 20.0121 22.429 19.6408 23.1538 19.1868C23.8788 18.7328 24.4576 18.3343 24.4403 18.3013C24.4228 18.2683 24.0747 17.7981 23.6665 17.2566C22.8469 16.169 22.0579 14.7313 21.7082 13.6883C20.6185 10.4378 21.1201 7.0625 23.0976 4.33797L23.6012 3.64416L22.6426 2.68551L21.6838 1.72679L21.0502 2.17838C16.8986 5.13705 11.9227 4.79662 7.51114 1.25222C7.22309 1.02076 6.9768 0.842125 6.96378 0.855148C6.84387 0.97505 5.33596 3.44055 5.33631 3.51605C5.33657 3.57064 5.6003 3.79395 5.92235 4.01212C9.48824 6.42823 13.5682 7.21601 16.7219 6.09756L17.4784 5.82928L6.96077 16.3852L0.310116 23.0601L2.25027 25.0003L8.94235 18.3325L19.4735 7.83973L19.1543 8.81438C18.3264 11.3428 18.6655 14.3393 20.1217 17.3603C20.5365 18.2211 21.654 20.0115 21.7768 20.012Z" fill="white"/>
</svg>
