<svg width="133" height="20" viewBox="0 0 133 20" fill="none" xmlns="http://www.w3.org/2000/svg">
<g clip-path="url(#clip0_397_2978)">
<path d="M8.27265 0.660156L0.337891 19.3623H2.30338L9.14621 2.96139L16.0254 19.3623H17.9909L10.0562 0.660156H8.27265Z" fill="#056C50"/>
<path d="M20.1744 12.1298V0.660156H18.3181V12.1298C18.3181 16.988 21.5939 19.07 24.433 19.3988L24.7242 19.4353V17.6455L24.5058 17.6089C22.5039 17.3167 20.1744 15.673 20.1744 12.1298Z" fill="#056C50"/>
<path d="M30.4755 12.1298C30.4755 15.673 28.1461 17.3167 26.1442 17.6089L25.9258 17.6455V19.4353L26.217 19.3988C29.0196 19.07 32.3318 16.9514 32.3318 12.1298V0.660156H30.4755V12.1298Z" fill="#056C50"/>
<path d="M77.0649 16.8053L70.6953 0.660156H68.6934L76.155 19.3623H77.9749L85.4729 0.660156H83.4346L77.0649 16.8053Z" fill="#056C50"/>
<path d="M98.3209 9.13281H87.5107V10.9227H98.3209V9.13281Z" fill="#056C50"/>
<path d="M99.1217 17.5H87.5107V19.3629H99.1217V17.5Z" fill="#056C50"/>
<path d="M98.8305 0.660156H87.5107V2.48653H98.8305V0.660156Z" fill="#056C50"/>
<path d="M114.482 10.7418C115.501 9.71899 116.084 8.22136 116.047 6.57762C116.011 3.72847 114.118 0.660156 109.969 0.660156H101.925V2.48653H109.969C111.17 2.48653 112.189 2.88834 112.917 3.61889C113.645 4.34944 114.045 5.44526 114.045 6.57762C114.009 9.2076 112.517 10.6687 109.823 10.6687H101.925V19.3988H103.817V12.4951H108.294L114.409 19.3623H116.921L110.588 12.3855C112.189 12.2759 113.499 11.728 114.482 10.7418Z" fill="#056C50"/>
<path d="M42.3417 3.17969H40.4854V19.3614H42.3417V3.17969Z" fill="#056C50"/>
<path d="M48.7108 0.660156H34.1152V2.41348H48.7108V0.660156Z" fill="#056C50"/>
<path d="M125.839 3.17969H123.946V19.3614H125.839V3.17969Z" fill="#056C50"/>
<path d="M117.612 0.660156V2.41348H124.273V2.48653H125.22H125.511V2.41348H132.172V0.660156H117.612Z" fill="#056C50"/>
<path d="M67.0188 5.37337L65.6357 6.65184L65.7085 6.83447C66.1817 7.85725 66.4365 8.91654 66.4365 10.0489C66.4365 12.0579 65.6721 13.9573 64.2526 15.3819C62.8331 16.8065 60.9404 17.5736 58.9385 17.5736C56.9366 17.5736 55.0439 16.8065 53.6243 15.3819C52.2048 13.9573 51.4405 12.0579 51.4405 10.0489C51.4405 5.92128 54.7891 2.52422 58.9385 2.52422C60.6856 2.52422 62.3599 3.14519 63.7066 4.24102L61.3043 6.65184C60.3944 6.17698 59.0841 6.50573 58.1013 7.45544L57.0094 8.55127C56.7182 8.84349 56.6818 9.31835 56.973 9.61057L57.1186 9.75668L55.8082 11.0717C55.517 11.3639 55.4806 11.8387 55.7718 12.131C56.063 12.4232 56.5362 12.3867 56.8274 12.0944L58.1377 10.7794L58.6473 11.2908L57.337 12.6058C57.0458 12.898 57.0094 13.3729 57.3006 13.6651C57.5917 13.9573 58.0649 13.9208 58.3561 13.6286L59.6664 12.3136L59.812 12.4597C59.9576 12.6058 60.1396 12.6789 60.358 12.6789C60.54 12.6789 60.722 12.6058 60.8676 12.4597L61.9595 11.3639C62.9786 10.3776 63.1242 8.9896 62.7239 8.11294L65.3081 5.51948L66.4365 4.46018L66.2909 4.27755C64.5074 2.04937 61.8503 0.734375 58.9749 0.734375C53.8427 0.734375 49.6934 4.93504 49.6934 10.0854C49.6934 15.2358 53.8791 19.4365 59.0113 19.4365C61.4863 19.4365 63.8522 18.4502 65.5993 16.6969C67.3464 14.9436 68.3292 12.5693 68.3292 10.0854C68.3292 8.55127 67.9652 7.05364 67.2372 5.70212L67.0188 5.37337ZM60.8676 10.3046L60.3216 10.8525L58.5381 9.06265L59.0477 8.55127C59.5572 8.07641 60.3216 7.63808 61.0131 8.36863C61.6319 8.91654 61.5591 9.64709 60.8676 10.3046Z" fill="#056C50"/>
</g>
<defs>
<clipPath id="clip0_397_2978">
<rect width="132.632" height="20" fill="white"/>
</clipPath>
</defs>
</svg>
