<svg width="28" height="25" viewBox="0 0 28 25" fill="none" xmlns="http://www.w3.org/2000/svg">
<path d="M2.5 3.99956C2.5 3.20402 2.81602 2.44108 3.37855 1.87855C3.94108 1.31602 4.70402 1 5.49956 1H21.9971C22.7926 1 23.5556 1.31602 24.1181 1.87855C24.6806 2.44108 24.9967 3.20402 24.9967 3.99956V4.74944C24.9967 4.94833 25.0757 5.13906 25.2163 5.2797C25.3569 5.42033 25.5477 5.49933 25.7466 5.49933C25.9454 5.49933 26.1362 5.57834 26.2768 5.71897C26.4174 5.8596 26.4964 6.05034 26.4964 6.24922V10.7486C26.4964 10.9474 26.4174 11.1382 26.2768 11.2788C26.1362 11.4194 25.9454 11.4984 25.7466 11.4984C25.5477 11.4984 25.3569 11.5774 25.2163 11.7181C25.0757 11.8587 24.9967 12.0494 24.9967 12.2483V12.9982C24.9967 13.7938 24.6806 14.5567 24.1181 15.1192C23.5556 15.6818 22.7926 15.9978 21.9971 15.9978H15.2481" stroke="white" stroke-width="2" stroke-linecap="round" stroke-linejoin="round"/>
<path d="M1 13.0015H9.99867V16.001C9.99867 16.7966 9.68264 17.5595 9.12012 18.122C8.55759 18.6846 7.79464 19.0006 6.99911 19.0006H3.99956C3.20402 19.0006 2.44108 18.6846 1.87855 18.122C1.31602 17.5595 1 16.7966 1 16.001V13.0015Z" stroke="white" stroke-width="2" stroke-linecap="round" stroke-linejoin="round"/>
<path d="M5.49609 23.5013V19.002" stroke="white" stroke-width="2" stroke-linecap="round" stroke-linejoin="round"/>
<path d="M2.5 12.9985V9.24902" stroke="white" stroke-width="2" stroke-linecap="round" stroke-linejoin="round"/>
<path d="M8.5 12.9985V9.24902" stroke="white" stroke-width="2" stroke-linecap="round" stroke-linejoin="round"/>
</svg>
