<svg width="26" height="25" viewBox="0 0 26 25" fill="none" xmlns="http://www.w3.org/2000/svg">
<path d="M18.998 20.5003C18.998 21.2959 19.3141 22.0589 19.8767 22.6215C20.4392 23.1841 21.2023 23.5001 21.9979 23.5001C22.7935 23.5001 23.5565 23.1841 24.119 22.6215C24.6816 22.0589 24.9977 21.2959 24.9977 20.5003C24.9977 19.7047 24.6816 18.9417 24.119 18.3791C23.5565 17.8165 22.7935 17.5005 21.9979 17.5005C21.2023 17.5005 20.4392 17.8165 19.8767 18.3791C19.3141 18.9417 18.998 19.7047 18.998 20.5003Z" stroke="white" stroke-width="2" stroke-linecap="round" stroke-linejoin="round"/>
<path d="M1 20.5003C1 21.2959 1.31605 22.0589 1.87862 22.6215C2.4412 23.1841 3.20421 23.5001 3.99981 23.5001C4.79541 23.5001 5.55842 23.1841 6.121 22.6215C6.68357 22.0589 6.99962 21.2959 6.99962 20.5003C6.99962 19.7047 6.68357 18.9417 6.121 18.3791C5.55842 17.8165 4.79541 17.5005 3.99981 17.5005C3.20421 17.5005 2.4412 17.8165 1.87862 18.3791C1.31605 18.9417 1 19.7047 1 20.5003Z" stroke="white" stroke-width="2" stroke-linecap="round" stroke-linejoin="round"/>
<path d="M6.99805 20.4994H14.4976C14.7923 18.6162 15.6774 16.8753 17.0252 15.5274C18.373 14.1796 20.1139 13.2946 21.9971 12.9998V5.5003C21.9971 4.7047 21.681 3.94169 21.1185 3.37911C20.5559 2.81654 19.7929 2.50049 18.9973 2.50049H17.4974" stroke="white" stroke-width="2" stroke-linecap="round" stroke-linejoin="round"/>
<path d="M9.99786 1L6.99805 6.99962H11.4978L8.49795 12.9992" stroke="white" stroke-width="2" stroke-linecap="round" stroke-linejoin="round"/>
</svg>
