<svg width="24" height="26" viewBox="0 0 24 26" fill="none" xmlns="http://www.w3.org/2000/svg">
<path d="M8.33612 1H15.0034C15.5339 1 16.0426 1.21073 16.4177 1.58584C16.7928 1.96095 17.0036 2.4697 17.0036 3.00018C17.0036 4.23798 16.5119 5.42507 15.6366 6.30032C14.7614 7.17557 13.5743 7.66728 12.3365 7.66728H11.003C9.76524 7.66728 8.57815 7.17557 7.7029 6.30032C6.82765 5.42507 6.33594 4.23798 6.33594 3.00018C6.33594 2.4697 6.54667 1.96095 6.92178 1.58584C7.29688 1.21073 7.80564 1 8.33612 1Z" stroke="white" stroke-width="2" stroke-linecap="round" stroke-linejoin="round"/>
<path d="M1 19.6657V18.3322C1 15.503 2.12391 12.7896 4.12448 10.789C6.12505 8.78846 8.83841 7.66455 11.6676 7.66455C14.4969 7.66455 17.2102 8.78846 19.2108 10.789C21.2114 12.7896 22.3353 15.503 22.3353 18.3322V19.6657C22.3353 21.0803 21.7733 22.437 20.773 23.4372C19.7728 24.4375 18.4161 24.9995 17.0015 24.9995H6.33382C4.9192 24.9995 3.56253 24.4375 2.56224 23.4372C1.56195 22.437 1 21.0803 1 19.6657Z" stroke="white" stroke-width="2" stroke-linecap="round" stroke-linejoin="round"/>
</svg>
