<svg width="20" height="14" viewBox="0 0 20 14" fill="none" xmlns="http://www.w3.org/2000/svg">
<path d="M15.1022 13.2913C16.1629 13.3099 17.1875 12.9063 17.9507 12.1694C18.7138 11.4325 19.153 10.4226 19.1716 9.36194L19.2416 5.36255C19.2602 4.30185 18.8566 3.27721 18.1197 2.51405C17.3828 1.75089 16.3729 1.31172 15.3122 1.29315L5.31377 1.11809C4.25307 1.09952 3.22843 1.50308 2.46527 2.23998C1.70211 2.97687 1.26293 3.98676 1.24436 5.04746L1.17434 9.04685C1.15577 10.1076 1.55932 11.1322 2.29622 11.8953C3.03312 12.6585 4.043 13.0977 5.10371 13.1163L15.1022 13.2913Z" stroke="#000603" stroke-width="1.4" stroke-linecap="round" stroke-linejoin="round"/>
<path d="M15.207 7.29883L11.2076 7.22881" stroke="#000603" stroke-width="1.4" stroke-linecap="round" stroke-linejoin="round"/>
</svg>
